<svg width="32" height="32" viewBox="0 0 32 32" fill="none" xmlns="http://www.w3.org/2000/svg">
<path d="M16.0007 28.6667C17.4673 28.6667 18.6673 27.4667 18.6673 26.0001H13.334C13.334 27.4667 14.534 28.6667 16.0007 28.6667ZM24.0006 20.6667V14.0001C24.0006 9.90675 21.8273 6.48008 18.0007 5.57341V4.66675C18.0007 3.56008 17.1073 2.66675 16.0007 2.66675C14.894 2.66675 14.0007 3.56008 14.0007 4.66675V5.57341C10.1873 6.48008 8.00065 9.89342 8.00065 14.0001V20.6667L5.33398 23.3334V24.6667H26.6673V23.3334L24.0006 20.6667ZM21.334 22.0001H10.6673V14.0001C10.6673 10.6934 12.6807 8.00008 16.0007 8.00008C19.3207 8.00008 21.334 10.6934 21.334 14.0001V22.0001Z" fill="black"/>
</svg>
