<svg width="24" height="24" viewBox="0 0 24 24" fill="none" xmlns="http://www.w3.org/2000/svg">
<path d="M18.3553 8.74113C18.3655 8.88325 18.3655 9.02541 18.3655 9.16753C18.3655 13.5025 15.066 18.4975 9.03553 18.4975C7.17766 18.4975 5.45178 17.9594 4 17.0254C4.26397 17.0558 4.51775 17.066 4.79187 17.066C6.32484 17.066 7.73603 16.5483 8.86294 15.665C7.42131 15.6345 6.21319 14.6904 5.79694 13.3909C6 13.4213 6.20303 13.4416 6.41625 13.4416C6.71066 13.4416 7.00509 13.401 7.27919 13.33C5.77666 13.0254 4.64972 11.7056 4.64972 10.1117V10.0711C5.08625 10.3148 5.59391 10.467 6.13194 10.4873C5.24869 9.89847 4.67003 8.89341 4.67003 7.75635C4.67003 7.14722 4.83244 6.58884 5.11672 6.10153C6.73094 8.09138 9.15734 9.39085 11.8781 9.533C11.8274 9.28935 11.7969 9.03556 11.7969 8.78175C11.7969 6.97463 13.2588 5.50256 15.0761 5.50256C16.0202 5.50256 16.873 5.8985 17.472 6.53809C18.2131 6.39597 18.9238 6.12184 19.5532 5.74622C19.3096 6.50766 18.7918 7.14725 18.1116 7.55331C18.7715 7.48228 19.4111 7.2995 19.9999 7.04572C19.5533 7.69544 18.9949 8.2741 18.3553 8.74113V8.74113Z" fill="white"/>
</svg>
